<svg width="98" height="98" viewBox="0 0 98 98" fill="none" xmlns="http://www.w3.org/2000/svg">
<g clip-path="url(#clip0_61_30)">
<path d="M49 97.7167C75.9055 97.7167 97.7167 75.9055 97.7167 49C97.7167 22.0944 75.9055 0.283203 49 0.283203C22.0944 0.283203 0.283203 22.0944 0.283203 49C0.283203 75.9055 22.0944 97.7167 49 97.7167Z" stroke="#0279BF" stroke-miterlimit="10"/>
<path d="M49.9911 76.9442C46.326 76.9555 43.6863 76.8139 41.0465 76.7176C40.6046 76.7006 40.4913 76.542 40.5197 76.1171C40.6103 74.7009 40.6839 73.2848 40.7293 71.8686C40.7406 71.4664 40.9559 71.2511 41.2561 71.1095C43.8619 69.8859 44.1564 66.1585 41.8339 63.7963C41.528 63.4848 41.3014 63.5697 41.2108 64.0059C41.0408 64.799 40.8652 65.5977 40.6783 66.3908C40.4517 67.3368 39.9079 67.756 38.9279 67.756C38.2311 67.756 37.574 67.603 37.0075 67.1895C36.3957 66.742 36.1012 66.1585 36.2881 65.3711C36.475 64.6007 36.6167 63.819 36.7923 63.0429C36.8999 62.5897 36.6733 62.5331 36.3221 62.6124C34.9909 62.9183 33.2688 64.765 33.0196 66.1245C32.759 67.5464 32.7703 68.9116 33.7956 70.0785C34.1298 70.4637 34.5264 70.7696 34.9512 71.0472C35.4554 71.3757 35.733 71.7779 35.699 72.4407C35.6423 73.5453 35.6763 74.6556 35.699 75.7602C35.699 76.0831 35.6367 76.2078 35.2798 76.1624C31.6374 75.7093 28.0346 75.0748 24.6018 73.6983C23.9843 73.449 23.7577 73.0695 23.786 72.4124C23.905 69.3308 24.7377 66.4531 26.1596 63.734C27.3888 61.3888 29.1902 59.6271 31.5524 58.4431C34.3281 57.0496 37.2171 55.9223 40.0891 54.7554C40.4687 54.6024 40.5933 54.778 40.7802 55.0273C42.3607 57.1233 44.3604 58.6471 46.9378 59.2589C50.3537 60.0689 53.237 58.9246 55.7635 56.6644C56.33 56.1602 56.8341 55.5881 57.259 54.9593C57.4289 54.7101 57.5875 54.6421 57.8708 54.7554C60.7654 55.9223 63.6715 57.0666 66.4642 58.4601C69.5515 60.0009 71.4888 62.5274 72.7237 65.6713C73.5621 67.7956 74.1059 69.9879 74.1739 72.2821C74.2022 73.2678 74.1512 73.3697 73.2222 73.7493C70.4918 74.8652 67.6254 75.4543 64.7308 75.8905C59.4965 76.6779 54.2283 76.9045 49.9685 76.9442H49.9911Z" fill="#0279BF"/>
<path d="M49.1244 40.0384C45.8106 40.0384 42.7743 39.8911 39.8059 39.081C38.622 38.7582 37.4834 38.322 36.4864 37.5799C36.2711 37.4156 36.0502 37.2457 35.8746 37.0417C35.1552 36.226 34.855 35.5972 36.0049 34.8608C36.7356 34.3906 36.815 33.7222 36.9452 32.9461C37.7723 28.0235 40.599 24.7209 45.2328 22.9309C45.448 22.8459 45.6689 22.7609 45.8955 22.7213C46.4507 22.6136 46.9095 22.506 46.8359 21.7299C46.7962 21.3164 47.2041 21.0672 47.6459 21.0615C48.541 21.0502 49.4303 21.0445 50.3254 21.0615C50.8862 21.0728 51.2147 21.3844 51.1864 21.9339C51.1637 22.4097 51.3733 22.557 51.7812 22.6646C56.9418 24.0355 60.5842 28.4483 60.9751 33.7902C60.9921 34.0508 61.0827 34.2207 61.2866 34.368C61.6322 34.6172 61.9664 34.8835 62.3006 35.1497C62.8444 35.5859 62.9011 35.9711 62.5102 36.5602C62.1024 37.172 61.5245 37.6025 60.8958 37.9538C59.1567 38.9281 57.2477 39.353 55.3047 39.6419C53.1691 39.9591 51.0165 40.0554 49.1188 40.0327L49.1244 40.0384Z" fill="#0279BF"/>
<path d="M61.0828 43.0918C61.0431 45.7429 60.0008 47.8728 58.3354 49.7422C58.0975 50.0085 57.9275 50.286 57.8199 50.6316C57.3214 52.2007 56.5737 53.6452 55.4747 54.8745C51.7473 59.0494 46.4848 59.1683 42.6441 54.9821C41.4998 53.7359 40.7124 52.2687 40.2082 50.6599C40.0949 50.2917 39.9137 50.0085 39.6644 49.7252C37.9423 47.7935 36.883 45.5786 36.9397 42.9332C36.9567 42.2194 37.002 41.4944 37.3985 40.8542C37.6138 40.503 37.8574 40.3671 38.3049 40.5257C40.6331 41.3301 43.0632 41.5907 45.4991 41.7946C48.4844 42.0438 51.4697 41.9645 54.4437 41.5737C56.2111 41.3414 57.9728 41.0468 59.6723 40.503C60.1651 40.3444 60.403 40.52 60.6239 40.8769C61.0601 41.5907 61.0318 42.395 61.0828 43.0918Z" fill="#0279BF"/>
</g>
<defs>
<clipPath id="clip0_61_30">
<rect width="98" height="98" fill="white"/>
</clipPath>
</defs>
</svg>
