<svg width="98" height="98" viewBox="0 0 98 98" fill="none" xmlns="http://www.w3.org/2000/svg">
<g clip-path="url(#clip0_61_46)">
<path d="M49 97.7167C75.9055 97.7167 97.7167 75.9055 97.7167 49C97.7167 22.0944 75.9055 0.283203 49 0.283203C22.0944 0.283203 0.283203 22.0944 0.283203 49C0.283203 75.9055 22.0944 97.7167 49 97.7167Z" stroke="#0279BF" stroke-miterlimit="10"/>
<path d="M27.3042 44.9896C31.2922 44.9896 35.2235 45.0009 39.1548 44.9896C42.2194 44.9782 45.2784 44.9669 48.343 44.8933C49.272 44.8706 49.6176 45.0632 49.6119 46.0998C49.5553 52.1781 49.5553 58.262 49.6119 64.346C49.6233 65.377 49.289 65.5526 48.3544 65.5469C42.5367 65.5072 36.719 65.5469 30.8956 65.5072C29.9156 65.5016 29.4738 65.6828 29.5701 66.7761C29.672 67.9487 29.6041 69.1383 29.5871 70.3166C29.5701 71.4835 28.9753 72.0897 27.7913 72.084C26.3468 72.084 24.9023 72.084 23.4578 72.084C22.2796 72.0783 21.7131 71.5062 21.7187 70.2996C21.7357 63.3886 21.7584 56.472 21.7187 49.561C21.7074 47.8786 23.016 47.0798 23.8713 45.8789C22.9423 45.3804 21.9397 45.3238 20.9937 45.0745C20.1383 44.8536 19.8437 44.3721 19.9967 43.545C20.0023 43.4997 20.025 43.4601 20.0307 43.4204C20.8124 40.0726 20.3252 40.4124 23.5088 40.656C26.1656 40.86 27.8083 40.1915 28.4145 37.4781C28.5787 36.7304 29.0206 36.0336 29.3718 35.3368C30.4651 33.1672 32.1872 31.9153 34.6627 31.8983C39.3021 31.87 43.9359 31.8983 48.5753 31.8813C49.2267 31.8813 49.6176 31.9267 49.6119 32.7707C49.6119 33.7054 49.0455 33.5694 48.4903 33.5694C44.2021 33.5694 39.9139 33.5694 35.6257 33.5694C32.8443 33.5694 31.6944 34.3342 30.6294 36.9003C29.4851 39.6647 28.3578 42.4348 27.3042 45.0009V44.9896ZM28.9753 56.2737V56.336C29.5418 56.3644 30.1082 56.3813 30.6804 56.4153C31.2922 56.4493 31.9039 56.4946 32.5101 56.5343C32.9066 56.5626 33.2578 56.5513 33.5297 56.1434C34.5381 54.597 34.2888 53.8209 32.5667 53.2601C31.4904 52.9089 30.4255 52.5293 29.3378 52.2234C28.3805 51.9572 27.4798 51.5097 26.4318 51.538C23.5201 51.6173 23.4635 51.6683 23.5824 54.614C23.6278 55.6903 24.1149 56.2454 25.1742 56.2681C26.4431 56.2907 27.7064 56.2681 28.9753 56.2681V56.2737Z" fill="#0279BF"/>
<path d="M78.0151 51.7759C78.0151 58.2054 77.9471 64.6349 78.0491 71.0644C78.0944 73.9137 76.412 75.6075 73.5683 75.5395C67.5806 75.3922 61.5873 75.4942 55.5941 75.4942C52.8693 75.4942 51.4248 74.044 51.4248 71.2796C51.4248 58.2451 51.4248 45.2105 51.4248 32.1759C51.4248 29.5078 52.8976 28.0633 55.5544 28.0123C56.5854 27.9897 57.9279 28.4825 58.5737 27.7914C59.2082 27.1173 58.7436 25.7918 58.7663 24.7494C58.806 22.9367 59.2648 22.4609 61.1172 22.4552C63.655 22.4552 66.1928 22.4439 68.7249 22.4552C70.1128 22.4609 70.6963 23.05 70.7926 24.4209C70.8719 25.5822 70.2827 27.0777 71.0531 27.8141C71.7556 28.4825 73.2227 27.9557 74.35 28.0123C76.6329 28.1256 77.9981 29.5985 78.0094 32.0796C78.0321 38.6394 78.0151 45.1992 78.0151 51.7589V51.7759ZM54.3138 51.7306C54.3138 58.0298 54.3421 64.329 54.2912 70.6282C54.2798 71.9027 54.5687 72.3899 55.9566 72.3729C61.8196 72.2993 67.6826 72.3106 73.54 72.3729C74.7295 72.3843 75.1204 72.0784 75.1147 70.8434C75.0751 58.1148 75.0751 45.3861 75.1147 32.6518C75.1147 31.5018 74.7749 31.1449 73.6249 31.1563C67.7223 31.2073 61.8139 31.2129 55.9113 31.1563C54.6141 31.1449 54.2798 31.5981 54.2912 32.8387C54.3478 39.1379 54.3138 45.4371 54.3195 51.7363L54.3138 51.7306Z" fill="#0279BF"/>
<path d="M64.6292 50.8184C62.4879 50.8184 60.3523 50.7788 58.211 50.8354C57.2763 50.8581 56.8628 50.6258 56.9081 49.6062C56.9818 47.9068 56.9591 46.2017 56.9138 44.5023C56.8911 43.6979 57.1007 43.2957 57.9958 43.3013C62.4936 43.324 66.9857 43.3183 71.4835 43.3013C72.1973 43.3013 72.5145 43.5619 72.5032 44.2983C72.4805 46.1337 72.4692 47.9634 72.5032 49.7988C72.5202 50.5975 72.2199 50.8524 71.4269 50.8354C69.1553 50.7901 66.8894 50.8184 64.6178 50.8184H64.6292Z" fill="#0279BF"/>
<path d="M64.6745 60.2673C62.4482 60.2673 60.2163 60.2446 57.9901 60.2786C57.197 60.29 56.9024 60.0124 56.9194 59.2137C56.9591 57.4236 56.9704 55.6335 56.9194 53.8435C56.8968 52.9598 57.265 52.7049 58.0807 52.7105C62.4935 52.7332 66.9064 52.7332 71.3192 52.7105C72.1236 52.7105 72.5371 52.9201 72.5201 53.8152C72.4805 55.6505 72.4918 57.4859 72.5201 59.3213C72.5315 60.0634 72.2199 60.2956 71.4948 60.29C69.2233 60.256 66.9517 60.2786 64.6801 60.2786L64.6745 60.2673Z" fill="#0279BF"/>
<path d="M64.6746 62.137C66.9008 62.137 69.1327 62.1653 71.3589 62.1256C72.22 62.1086 72.5259 62.4315 72.5146 63.2756C72.4806 65.0203 72.4806 66.7707 72.5146 68.5211C72.5315 69.3538 72.237 69.6937 71.3759 69.6881C66.9631 69.6597 62.5503 69.6597 58.1318 69.6881C57.2368 69.6881 56.8855 69.3935 56.9139 68.4701C56.9705 66.7651 56.9705 65.06 56.9139 63.3605C56.8855 62.4542 57.1971 62.1143 58.1148 62.1313C60.3014 62.1766 62.4823 62.1483 64.6689 62.1483L64.6746 62.137Z" fill="#0279BF"/>
<path d="M64.748 41.3866C62.5218 41.3866 60.2899 41.3583 58.0637 41.398C57.2309 41.415 56.8854 41.16 56.9137 40.282C56.9647 38.5373 56.9704 36.7869 56.9137 35.0421C56.8854 34.1358 57.2819 33.9375 58.0863 33.9375C62.5388 33.9602 66.9969 33.9658 71.4494 33.9375C72.2482 33.9375 72.5314 34.2151 72.5144 35.0025C72.4804 36.7925 72.4748 38.5826 72.5144 40.3726C72.5314 41.1884 72.2085 41.415 71.4268 41.398C69.2005 41.3583 66.9743 41.381 64.7424 41.381L64.748 41.3866Z" fill="#0279BF"/>
</g>
<defs>
<clipPath id="clip0_61_46">
<rect width="98" height="98" fill="white"/>
</clipPath>
</defs>
</svg>
