<svg xmlns="http://www.w3.org/2000/svg" width="98" height="98" fill="none" xmlns:v="https://vecta.io/nano"><g clip-path="url(#A)"><path d="M70.996 33.173c.034.397-.17.708-.385 1.02l-3.28 4.775c-.227.329-.261.578-.062.935.47.855.844 1.762 1.122 2.696a.87.87 0 0 0 .804.708l5.687 1.065c.946.187 1.297.629 1.303 1.597v6.073c0 .997-.363 1.416-1.365 1.614l-5.687 1.071c-.408.074-.589.238-.708.623-.3.98-.674 1.932-1.178 2.827-.221.391-.147.657.091 1.003l3.195 4.662c.617.906.572 1.456-.193 2.221l-4.198 4.197c-.753.748-1.331.787-2.226.176l-4.719-3.234c-.323-.227-.572-.266-.935-.074a14.46 14.46 0 0 1-2.9 1.173c-.38.102-.516.323-.578.674l-.997 5.416c-.238 1.32-.6 1.631-1.966 1.631h-5.653c-1.15 0-1.546-.334-1.762-1.444l-1.071-5.687c-.062-.34-.17-.533-.515-.64-.997-.311-1.977-.697-2.889-1.212-.346-.193-.555-.057-.81.119l-4.662 3.195c-.952.646-1.467.6-2.272-.204L28.04 66c-.776-.776-.833-1.32-.221-2.215l3.201-4.662c.244-.346.283-.612.074-.997-.476-.855-.844-1.762-1.122-2.702-.13-.436-.329-.629-.799-.708l-5.687-1.065c-.912-.176-1.292-.623-1.297-1.529v-6.214c0-.912.374-1.348 1.291-1.529l5.755-1.076c.396-.068.595-.232.714-.623.289-.957.657-1.892 1.144-2.764.193-.34.142-.572-.068-.872l-3.274-4.775c-.6-.884-.544-1.456.221-2.221l4.147-4.147c.799-.799 1.32-.85 2.277-.198l4.486 3.082c.447.317.799.408 1.303.108.799-.47 1.682-.793 2.572-1.065.351-.108.521-.272.589-.663l1.082-5.755c.193-1.02.617-1.371 1.677-1.377h5.937c1.082 0 1.524.363 1.722 1.422l1.008 5.483c.079.47.249.714.736.85a13.56 13.56 0 0 1 2.832 1.167c.329.181.561.164.872-.057l4.775-3.28c.918-.629 1.49-.578 2.283.204l4.147 4.147c.34.34.629.691.589 1.212l-.011-.006zm-21.821 7.574a8.25 8.25 0 0 0-8.265 8.248c-.011 4.6 3.688 8.304 8.282 8.299 4.571-.006 8.248-3.676 8.265-8.248.011-4.6-3.682-8.299-8.282-8.299z" fill="#0279bf"/><path d="M49 97.717c26.906 0 48.717-21.811 48.717-48.717S75.906.283 49 .283.283 22.094.283 49 22.094 97.717 49 97.717z" stroke="#0279bf" stroke-miterlimit="10"/></g><defs><clipPath id="A"><path fill="#fff" d="M0 0h98v98H0z"/></clipPath></defs></svg>